<svg xmlns="http://www.w3.org/2000/svg" version="1.1" xmlns:xlink="http://www.w3.org/1999/xlink" xmlns:svgjs="http://svgjs.dev/svgjs" width="2000" height="297" viewBox="0 0 2000 297"><g transform="matrix(1,0,0,1,-1.2121212121212466,0.1646021272458995)"><svg viewBox="0 0 396 59" data-background-color="#e8f2f1" preserveAspectRatio="xMidYMid meet" height="297" width="2000" xmlns="http://www.w3.org/2000/svg" xmlns:xlink="http://www.w3.org/1999/xlink"><g id="tight-bounds" transform="matrix(1,0,0,1,0.2400000000000091,-0.03269873908251952)"><svg viewBox="0 0 395.52 59.06539747816506" height="59.06539747816506" width="395.52"><g><svg viewBox="0 0 459.07733958827464 68.55680000000001" height="59.06539747816506" width="395.52"><g transform="matrix(1,0,0,1,63.557339588274644,0)"><svg viewBox="0 0 395.52 68.55680000000001" height="68.55680000000001" width="395.52"><g id="textblocktransform"><svg viewBox="0 0 395.52 68.55680000000001" height="68.55680000000001" width="395.52" id="textblock"><g><svg viewBox="0 0 395.52 68.55680000000001" height="68.55680000000001" width="395.52"><g transform="matrix(1,0,0,1,0,0)"><svg width="395.52" viewBox="0.8 -35.95 209.98 36.400000000000006" height="68.55680000000001" data-palette-color="#877eff"><g class="wordmark-text-0" data-fill-palette-color="primary" id="text-0"><path d="M10 0.45L10 0.45Q6.9 0.45 4.85-0.4 2.8-1.25 1.8-2.58 0.8-3.9 0.8-5.25L0.8-5.25Q0.8-7.15 2.5-8.63 4.2-10.1 7.1-10.1L7.1-10.1Q7.1-7.55 7.75-6.03 8.4-4.5 9.43-3.85 10.45-3.2 11.4-3.2L11.4-3.2Q12.55-3.2 13.33-3.88 14.1-4.55 14.1-5.55L14.1-5.55Q14.1-6.95 12.65-8 11.2-9.05 8.9-10.35L8.9-10.35Q7.75-11.05 6.4-11.98 5.05-12.9 4.1-14.23 3.15-15.55 3.15-17.4L3.15-17.4Q3.15-19.35 4.28-20.85 5.4-22.35 7.25-23.38 9.1-24.4 11.25-24.93 13.4-25.45 15.45-25.45L15.45-25.45Q19.3-25.45 21.25-23.9 23.2-22.35 23.2-20.6L23.2-20.6Q23.2-19.1 21.7-17.9 20.2-16.7 17.1-16.7L17.1-16.7Q17.15-19.25 16.05-20.43 14.95-21.6 13.7-21.6L13.7-21.6Q12.8-21.6 12.2-21.05 11.6-20.5 11.6-19.45L11.6-19.45Q11.6-18.25 12.38-17.38 13.15-16.5 14.33-15.83 15.5-15.15 16.75-14.55L16.75-14.55Q18.45-13.75 19.95-12.85 21.45-11.95 22.4-10.8 23.35-9.65 23.35-8L23.35-8Q23.35-5.75 21.53-3.83 19.7-1.9 16.65-0.73 13.6 0.45 10 0.45ZM37.15 0.35L37.15 0.35Q33.4 0.35 30.95-1.15 28.5-2.65 27.32-5.13 26.15-7.6 26.15-10.4L26.15-10.4Q26.15-13.05 27.12-15.7 28.1-18.35 29.97-20.53 31.85-22.7 34.55-24.03 37.25-25.35 40.75-25.35L40.75-25.35Q44.5-25.35 46.92-23.83 49.35-22.3 50.52-19.8 51.7-17.3 51.7-14.45L51.7-14.45Q51.7-11.85 50.75-9.22 49.8-6.6 47.92-4.42 46.05-2.25 43.35-0.95 40.65 0.35 37.15 0.35ZM38.5-3.9L38.5-3.9Q39.85-3.9 40.75-5.3 41.65-6.7 42.1-8.88 42.55-11.05 42.55-13.3L42.55-13.3Q42.55-15.3 42.17-17.07 41.8-18.85 41.05-19.98 40.3-21.1 39.1-21.1L39.1-21.1Q37.8-21.1 36.87-19.7 35.95-18.3 35.5-16.15 35.05-14 35.05-11.7L35.05-11.7Q35.05-9.7 35.42-7.93 35.8-6.15 36.55-5.03 37.3-3.9 38.5-3.9ZM64.25 0.35L64.25 0.35Q60.95 0.35 58.67-1.15 56.39-2.65 55.24-5.08 54.09-7.5 54.09-10.3L54.09-10.3Q54.09-12.95 55.12-15.6 56.14-18.25 58.14-20.48 60.14-22.7 63.02-24.03 65.89-25.35 69.64-25.35L69.64-25.35Q73.34-25.35 75.14-23.88 76.94-22.4 76.94-20.65L76.94-20.65Q76.94-18.8 75.09-17.25 73.25-15.7 69.69-15.7L69.69-15.7Q69.89-16.45 70.02-17.23 70.14-18 70.14-18.7L70.14-18.7Q70.14-19.75 69.69-20.48 69.25-21.2 68.09-21.2L68.09-21.2Q67.05-21.2 65.87-20.25 64.69-19.3 63.87-17.45 63.05-15.6 63.05-12.9L63.05-12.9Q63.05-10.25 63.92-8.6 64.8-6.95 66.19-6.23 67.59-5.5 69.14-5.5L69.14-5.5Q71.19-5.5 73.09-6.58 75-7.65 75.84-9.55L75.84-9.55 76.34-9.35Q76.34-6.75 75.17-4.93 74-3.1 72.14-1.93 70.3-0.75 68.19-0.2 66.09 0.35 64.25 0.35ZM88.44-26.75L88.44-26.75Q86.44-26.75 85.17-27.98 83.89-29.2 83.89-31.05L83.89-31.05Q83.89-33.05 85.39-34.5 86.89-35.95 89.04-35.95L89.04-35.95Q91.04-35.95 92.32-34.7 93.59-33.45 93.59-31.6L93.59-31.6Q93.59-29.6 92.09-28.18 90.59-26.75 88.44-26.75ZM84.94 0.2L84.94 0.2Q82.99 0.2 81.44-1.18 79.89-2.55 79.89-5.6L79.89-5.6Q79.89-7.35 80.37-8.88 80.84-10.4 81.47-11.85 82.09-13.3 82.57-14.68 83.04-16.05 83.04-17.4L83.04-17.4Q83.04-18.6 82.64-19.13 82.24-19.65 81.69-19.65L81.69-19.65Q80.84-19.65 80.04-18.55L80.04-18.55 79.69-18.75Q79.89-20.75 80.97-22.18 82.04-23.6 83.62-24.4 85.19-25.2 86.74-25.2L86.74-25.2Q88.64-25.2 90.04-23.98 91.44-22.75 91.44-20L91.44-20Q91.44-18.35 90.97-16.53 90.49-14.7 89.87-12.9 89.24-11.1 88.77-9.55 88.29-8 88.29-6.9L88.29-6.9Q88.29-5.95 88.67-5.55 89.04-5.15 89.49-5.15L89.49-5.15Q89.94-5.15 90.37-5.43 90.79-5.7 90.99-6.05L90.99-6.05 91.34-5.95Q91.34-4.1 90.37-2.73 89.39-1.35 87.94-0.58 86.49 0.2 84.94 0.2ZM113.49 0.25L113.49 0.25Q111.74 0.25 110.44-0.9 109.14-2.05 109.14-4.65L109.14-4.65Q109.14-4.9 109.14-5.15 109.14-5.4 109.19-5.65L109.19-5.65Q107.69-2.65 105.82-1.23 103.94 0.2 102.04 0.2L102.04 0.2Q100.29 0.2 98.74-1.03 97.19-2.25 96.24-4.65 95.29-7.05 95.29-10.45L95.29-10.45Q95.29-13.95 96.27-16.7 97.24-19.45 98.84-21.35 100.44-23.25 102.34-24.23 104.24-25.2 106.04-25.2L106.04-25.2Q108.04-25.2 109.64-23.98 111.24-22.75 111.84-20.1L111.84-20.1Q111.99-20.95 112.07-21.65 112.14-22.35 112.14-22.6L112.14-22.6Q112.19-23.95 113.52-24.6 114.84-25.25 116.44-25.25L116.44-25.25Q117.84-25.25 119.09-24.7 120.34-24.15 120.79-22.85L120.79-22.85 120.89-22.55Q120.29-21.2 119.69-19.3 119.09-17.4 118.59-15.33 118.09-13.25 117.79-11.28 117.49-9.3 117.49-7.8L117.49-7.8Q117.49-6.15 117.84-5.53 118.19-4.9 118.69-4.9L118.69-4.9Q119.54-4.9 120.24-6.1L120.24-6.1 120.64-5.9Q120.64-4.2 119.54-2.8 118.44-1.4 116.79-0.58 115.14 0.25 113.49 0.25ZM105.34-6.1L105.34-6.1Q106.64-6.1 108.22-8.43 109.79-10.75 110.94-15.1L110.94-15.1Q111.04-15.55 111.14-15.98 111.24-16.4 111.29-16.8L111.29-16.8Q110.49-18.65 109.62-19.43 108.74-20.2 107.89-20.2L107.89-20.2Q106.64-20.2 105.57-18.88 104.49-17.55 103.82-15.55 103.14-13.55 103.14-11.55L103.14-11.55Q103.14-8.8 103.77-7.45 104.39-6.1 105.34-6.1ZM129.19 0.2L129.19 0.2Q127.84 0.2 126.56-0.48 125.29-1.15 124.49-2.65 123.69-4.15 123.69-6.5L123.69-6.5Q123.69-8.6 124.26-11.43 124.84-14.25 125.56-17.3 126.29-20.35 126.84-23.25 127.39-26.15 127.34-28.4L127.34-28.4Q127.34-30.55 126.84-31.45L126.84-31.45 126.79-31.6Q127.34-33.2 128.74-34.1 130.14-35 131.69-35L131.69-35Q133.44-35 134.81-33.68 136.19-32.35 136.19-29.25L136.19-29.25Q136.19-27.6 135.79-25.33 135.39-23.05 134.84-20.48 134.29-17.9 133.71-15.4 133.14-12.9 132.74-10.8 132.34-8.7 132.34-7.35L132.34-7.35Q132.34-5.95 132.74-5.43 133.14-4.9 133.64-4.9L133.64-4.9Q134.19-4.9 134.69-5.33 135.19-5.75 135.34-6.1L135.34-6.1 135.74-6Q135.69-4.2 134.71-2.8 133.74-1.4 132.26-0.6 130.79 0.2 129.19 0.2ZM148.19-26.75L148.19-26.75Q146.19-26.75 144.91-27.98 143.64-29.2 143.64-31.05L143.64-31.05Q143.64-33.05 145.14-34.5 146.64-35.95 148.79-35.95L148.79-35.95Q150.79-35.95 152.06-34.7 153.34-33.45 153.34-31.6L153.34-31.6Q153.34-29.6 151.84-28.18 150.34-26.75 148.19-26.75ZM144.69 0.2L144.69 0.2Q142.74 0.2 141.19-1.18 139.64-2.55 139.64-5.6L139.64-5.6Q139.64-7.35 140.11-8.88 140.59-10.4 141.21-11.85 141.84-13.3 142.31-14.68 142.79-16.05 142.79-17.4L142.79-17.4Q142.79-18.6 142.39-19.13 141.99-19.65 141.44-19.65L141.44-19.65Q140.59-19.65 139.79-18.55L139.79-18.55 139.44-18.75Q139.64-20.75 140.71-22.18 141.79-23.6 143.36-24.4 144.94-25.2 146.49-25.2L146.49-25.2Q148.39-25.2 149.79-23.98 151.19-22.75 151.19-20L151.19-20Q151.19-18.35 150.71-16.53 150.24-14.7 149.61-12.9 148.99-11.1 148.51-9.55 148.04-8 148.04-6.9L148.04-6.9Q148.04-5.95 148.41-5.55 148.79-5.15 149.24-5.15L149.24-5.15Q149.69-5.15 150.11-5.43 150.54-5.7 150.74-6.05L150.74-6.05 151.09-5.95Q151.09-4.1 150.11-2.73 149.14-1.35 147.69-0.58 146.24 0.2 144.69 0.2ZM160.88 0.15L160.88 0.15Q159.03 0.15 157.53-1.33 156.03-2.8 156.03-5.45L156.03-5.45Q156.03-6.75 156.38-8.4 156.73-10.05 157.16-11.75 157.58-13.45 157.93-14.95 158.28-16.45 158.28-17.4L158.28-17.4Q158.28-18.4 157.88-18.98 157.48-19.55 156.83-19.55L156.83-19.55Q155.98-19.55 154.98-18.55L154.98-18.55 154.68-18.75Q154.63-19.55 155.03-20.65 155.43-21.75 156.26-22.78 157.08-23.8 158.38-24.5 159.68-25.2 161.48-25.2L161.48-25.2Q164.13-25.2 165.41-23.68 166.68-22.15 166.68-19.95L166.68-19.95Q166.68-19.15 166.53-18.4L166.53-18.4Q167.58-19.95 169.13-21.53 170.68-23.1 172.56-24.15 174.43-25.2 176.43-25.2L176.43-25.2Q178.78-25.2 179.63-23.7 180.48-22.2 180.48-19.95L180.48-19.95Q180.48-17.85 180.03-15.45 179.58-13.05 179.13-10.83 178.68-8.6 178.68-7.1L178.68-7.1Q178.68-5.1 179.83-5.1L179.83-5.1Q180.43-5.1 180.88-5.48 181.33-5.85 181.48-6.2L181.48-6.2 181.83-6.05Q181.83-4.2 180.81-2.8 179.78-1.4 178.23-0.63 176.68 0.15 175.08 0.15L175.08 0.15Q173.13 0.15 171.63-1.2 170.13-2.55 170.13-5.6L170.13-5.6Q170.13-7.4 170.61-9.5 171.08-11.6 171.53-13.55 171.98-15.5 171.98-16.75L171.98-16.75Q171.98-17.5 171.71-17.93 171.43-18.35 170.73-18.35L170.73-18.35Q169.58-18.35 168.21-17.3 166.83-16.25 165.86-14.5 164.88-12.75 164.88-10.65L164.88-10.65Q164.88-9.3 165.21-8.05 165.53-6.8 165.53-5.35L165.53-5.35Q165.53-2.65 164.13-1.25 162.73 0.15 160.88 0.15ZM202.98 0.25L202.98 0.25Q201.33 0.25 199.88-0.53 198.43-1.3 197.53-2.8 196.63-4.3 196.63-6.4L196.63-6.4Q196.63-8.55 197.68-11.25L197.68-11.25Q198.48-11.65 199.58-12.5 200.68-13.35 201.53-14.43 202.38-15.5 202.38-16.55L202.38-16.55Q202.38-17.5 201.66-18.05 200.93-18.6 199.88-18.6L199.88-18.6Q198.58-18.6 197.43-17.8 196.28-17 195.41-15.73 194.53-14.45 194.06-12.98 193.58-11.5 193.58-10.15L193.58-10.15Q193.58-8.85 193.91-7.73 194.23-6.6 194.23-5.15L194.23-5.15Q194.23-2.9 193.03-1.35 191.83 0.2 189.48 0.2L189.48 0.2Q187.33 0.2 186.03-1.25 184.73-2.7 184.73-5.2L184.73-5.2Q184.73-6.5 185.06-8.65 185.38-10.8 185.88-13.4 186.38-16 186.86-18.78 187.33-21.55 187.66-24.13 187.98-26.7 187.98-28.75L187.98-28.75Q187.98-29.85 187.86-30.78 187.73-31.7 187.33-32.25L187.33-32.25 187.33-32.55Q188.43-33.8 189.73-34.4 191.03-35 192.28-35L192.28-35Q194.18-35 195.53-33.65 196.88-32.3 196.88-29.65L196.88-29.65Q196.88-28.25 196.51-26.25 196.13-24.25 195.61-22.05 195.08-19.85 194.53-17.85L194.53-17.85Q195.63-19.45 197.03-21.15 198.43-22.85 200.18-24.03 201.93-25.2 204.13-25.2L204.13-25.2Q206.68-25.2 208.13-23.58 209.58-21.95 209.58-19.7L209.58-19.7Q209.58-17.45 207.96-14.9 206.33-12.35 202.53-10.6L202.53-10.6Q203.18-9.15 204.33-8 205.48-6.85 206.86-6.23 208.23-5.6 209.43-5.6L209.43-5.6Q210.03-5.6 210.48-5.8L210.48-5.8 210.78-5.5Q209.53-2.6 207.36-1.18 205.18 0.25 202.98 0.25Z" fill="#877eff" data-fill-palette-color="primary"></path></g></svg></g></svg></g></svg></g></svg></g><g transform="matrix(1,0,0,1,0,10.5920256)"><svg viewBox="0 0 47.37272447147464 47.37274880000001" height="47.37274880000001" width="47.37272447147464"><g><svg xmlns="http://www.w3.org/2000/svg" xmlns:xlink="http://www.w3.org/1999/xlink" version="1.1" x="0" y="0" viewBox="4.999802624769675 4.9994999999999985 90.00069737523032 90.00074359558756" enable-background="new 0 0 100 100" xml:space="preserve" height="47.37274880000001" width="47.37272447147464" class="icon-icon-0" data-fill-palette-color="accent" id="icon-0"><g fill="#877eff" data-fill-palette-color="accent"><path d="M5.316 94.538l3.806-25.693C1.46 52.219 4.479 31.881 18.18 18.18c17.574-17.574 46.066-17.574 63.64 0s17.574 46.066 0 63.64c-13.884 13.884-34.583 16.799-51.328 8.745L5.316 94.538zM23.799 49.684c0 3.189 2.585 5.774 5.774 5.774s5.774-2.585 5.774-5.774c0-3.189-2.585-5.774-5.774-5.774S23.799 46.495 23.799 49.684zM44.361 49.684c0 3.189 2.585 5.774 5.774 5.774 3.189 0 5.774-2.585 5.774-5.774 0-3.189-2.585-5.774-5.774-5.774C46.946 43.91 44.361 46.495 44.361 49.684zM64.923 49.684c0 3.189 2.585 5.774 5.774 5.774s5.774-2.585 5.774-5.774c0-3.189-2.585-5.774-5.774-5.774S64.923 46.495 64.923 49.684z" fill="#877eff" data-fill-palette-color="accent"></path></g></svg></g></svg></g></svg></g><defs></defs></svg><rect width="395.52" height="59.06539747816506" fill="none" stroke="none" visibility="hidden"></rect></g></svg></g></svg>